<?xml version="1.0" encoding="UTF-8" standalone="no"?>
<!-- Created with Inkscape (http://www.inkscape.org/) -->

<svg
   xmlns:dc="http://purl.org/dc/elements/1.1/"
   xmlns:cc="http://creativecommons.org/ns#"
   xmlns:rdf="http://www.w3.org/1999/02/22-rdf-syntax-ns#"
   xmlns:svg="http://www.w3.org/2000/svg"
   xmlns="http://www.w3.org/2000/svg"
   xmlns:sodipodi="http://sodipodi.sourceforge.net/DTD/sodipodi-0.dtd"
   xmlns:inkscape="http://www.inkscape.org/namespaces/inkscape"
   version="1.0"
   width="119"
   height="28"
   id="svg2"
   inkscape:version="0.48.4 r9939"
   sodipodi:docname="Boeing-Logo.svg">
  <title
     id="title2992">Boeing full logo</title>
  <metadata
     id="metadata15">
    <rdf:RDF>
      <cc:Work
         rdf:about="">
        <dc:format>image/svg+xml</dc:format>
        <dc:type
           rdf:resource="http://purl.org/dc/dcmitype/StillImage" />
        <dc:title>Boeing full logo</dc:title>
      </cc:Work>
    </rdf:RDF>
  </metadata>
  <sodipodi:namedview
     pagecolor="#ffffff"
     bordercolor="#666666"
     borderopacity="1"
     objecttolerance="10"
     gridtolerance="10"
     guidetolerance="10"
     inkscape:pageopacity="0"
     inkscape:pageshadow="2"
     inkscape:window-width="1600"
     inkscape:window-height="844"
     id="namedview13"
     showgrid="false"
     inkscape:showpageshadow="false"
     inkscape:zoom="1"
     inkscape:cx="12.02773"
     inkscape:cy="15"
     inkscape:window-x="-4"
     inkscape:window-y="-4"
     inkscape:window-maximized="1"
     inkscape:current-layer="svg2" />
  <defs
     id="defs4" />
  <g
     transform="translate(-51.074614,-303.57365)"
     id="layer1">
    <g
       transform="matrix(0.1933508,0,0,0.1933508,51.376657,304.21317)"
       id="g2387">
      <path
         d="m 66.9946,68.9756 13.9727,26.2153 c -8.1758,8.4731 -19.645,13.7671 -32.3477,13.7671 -10.2944,0 -19.769,-3.4814 -27.3462,-9.2886 8.2827,-19.7158 26.4868,-47.0107 51.6577,-73.4634 12.4116,7.9995 20.6333,21.9302 20.6333,37.7979 0,6.8271 -1.5283,13.2881 -4.2534,19.0854 -8.2143,-3.5849 -15.8945,-8.185 -22.3164,-14.1137 l 0,0 z M 13.54,92.0947 C 7.3672,84.3931 3.6675,74.626 3.6675,64.0039 c 0,-24.8262 20.1284,-44.9521 44.9521,-44.9521 7.0034,0 13.6333,1.604 19.5449,4.4609 C 43.2964,45.0547 24.2622,70.5088 13.54,92.0947 l 0,0 M 92.7026,84.501 c 2.9033,-6.2271 4.5317,-13.1768 4.5317,-20.4971 0,-16.9028 -8.6265,-31.7808 -21.71,-40.4961 C 83.3213,15.4917 91.7432,7.5747 100.7266,0 90.2095,6.1855 80.3296,13.2861 71.1875,20.9414 64.4429,17.3989 56.7661,15.3813 48.6196,15.3813 21.7666,15.3813 0,37.1484 0,64.0039 c 0,12.1265 4.4517,23.2026 11.7944,31.7192 -9.311,20.126 -10.9497,36.3203 -2.7422,41.7905 8.7832,5.855 27.8882,-4.7573 39.3501,-22.0552 0,0 -17.73,15.9946 -27.4609,12.3267 -6.0093,-2.271 -6.0215,-11.4375 -1.0767,-24.585 8.0532,5.9146 17.9937,9.416 28.7549,9.416 13.3159,0 25.3784,-5.3574 34.1592,-14.0259 l 1.729,3.2476 c 21.1904,-1.7241 84.4688,-3.3843 84.4688,-3.3843 0,-3.0526 -41.9073,-0.2982 -76.274,-13.9525 l 0,0"
         id="path2389"
         style="fill:#aeadae"
         inkscape:connector-curvature="0" />
      <polygon
         points="312.4429,79.7632 367.522,79.7632 375.4429,69.2441 347.8647,69.2441 355.1616,59.54 382.7593,59.54 382.7593,59.54 390.6851,49.0205 363.0874,49.0156 369.8911,39.9956 397.4829,39.9956 405.4097,29.4736 350.3306,29.4736 "
         id="polygon2391"
         style="fill:#3277bd" />
      <polygon
         points="448.5083,29.4736 421.0171,29.4736 421.0171,29.4736 383.1294,79.7632 410.6255,79.7632 "
         id="polygon2393"
         style="fill:#3277bd" />
      <polygon
         points="512.6021,29.4736 493.3999,54.9639 487.5044,29.4736 466.0161,29.4736 428.1196,79.7632 446.311,79.7632 465.3433,54.5049 471.1831,79.7632 492.9058,79.7632 530.7944,29.4736 512.6021,29.4736 "
         id="polygon2395"
         style="fill:#3277bd" />
      <path
         d="m 602.4868,29.4736 -44.1777,-0.0024 c -7.5703,0 -14.2803,3.626 -18.5098,9.2373 l -22.8164,30.2769 c -0.8496,1.1182 -1.3477,2.5293 -1.3477,4.0435 0,3.7212 3.0088,6.7344 6.7295,6.7344 l 44.1787,0 c 7.5596,0 14.29,-3.6187 18.5137,-9.23 l 5.4893,-7.2764 6.373,0 7.9805,-10.5928 -33.834,0 -10.6865,14.1821 c -1.0986,1.4502 -2.8418,2.3931 -4.8057,2.3931 l -7.7793,0 c -0.9727,0 -1.7529,-0.7817 -1.7529,-1.7485 0,-0.3955 0.1309,-0.7617 0.3506,-1.0503 L 564.521,42.3883 c 1.0889,-1.4575 2.8281,-2.3926 4.7959,-2.3926 l 7.7842,0 c 0.9678,0 1.749,0.7861 1.749,1.748 0,0.3911 -0.1367,0.7568 -0.3525,1.0503 l -2.9443,3.9067 27.4717,0 4.8447,-6.4419 c 0.8486,-1.1255 1.3525,-2.5269 1.3525,-4.0508 0,-3.7139 -3.0186,-6.7344 -6.7354,-6.7344 l 0,0 z"
         id="path2397"
         style="fill:#3277bd"
         inkscape:connector-curvature="0" />
      <path
         d="m 297.0693,42.7939 -18.1235,24.0522 c -1.0942,1.4502 -2.8379,2.3931 -4.8008,2.3931 l -7.7847,0 c -0.9595,0 -1.7437,-0.7817 -1.7437,-1.7432 0,-0.4009 0.1318,-0.7671 0.3467,-1.0557 l 18.124,-24.0469 c 1.0986,-1.4531 2.8394,-2.3979 4.8008,-2.3979 l 7.7861,0 c 0.9629,0 1.7441,0.7861 1.7441,1.748 2e-4,0.3913 -0.1273,0.757 -0.349,1.0504 l 0,0 z m 30.7232,-6.5859 c 0,-3.7139 -3.0137,-6.7344 -6.7344,-6.7344 l -44.166,0 c -7.5698,0 -14.2847,3.6235 -18.5166,9.2349 l -22.814,30.2769 c -0.8452,1.123 -1.3481,2.5293 -1.3481,4.0435 0,3.7212 3.0107,6.7344 6.7271,6.7344 l 44.1733,0.0054 c 7.5645,0 14.2876,-3.624 18.5166,-9.2354 l 22.8193,-30.269 c 0.8447,-1.131 1.3428,-2.5324 1.3428,-4.0563 l 0,0"
         id="path2399"
         style="fill:#3277bd"
         inkscape:connector-curvature="0" />
      <path
         d="m 213.106,42.7939 -2.8911,3.8389 c -1.0991,1.4448 -2.8379,2.3877 -4.8008,2.3877 l -11.2915,-0.0049 6.8008,-9.02 10.7856,0 c 0.9644,0 1.7485,0.7861 1.7485,1.748 0,0.3912 -0.1343,0.7569 -0.3515,1.0503 l 0,0 z m -14.729,19.5445 -3.3994,4.5122 c -1.0967,1.4458 -2.8398,2.3936 -4.8032,2.3936 l -11.2866,0 7.3091,-9.7041 10.7856,0 c 0.9644,0 1.7432,0.7861 1.7432,1.7432 -1e-4,0.4008 -0.1266,0.767 -0.3487,1.0551 l 0,0 m 25.5097,-6.4854 c 5.4209,-1.2261 10.1216,-4.3569 13.3618,-8.6494 l 5.228,-6.9395 c 0.8472,-1.1309 1.3501,-2.5322 1.3501,-4.0562 0,-3.7139 -3.0156,-6.7344 -6.7319,-6.7344 l -28.2451,0 -27.4854,0 -37.8931,50.2896 27,0 30.6719,0.0054 c 7.5698,0 14.2876,-3.624 18.5215,-9.2354 l 5.3433,-7.0957 c 0.6807,-0.894 1.0791,-2.0269 1.0791,-3.2383 0,-1.7826 -0.8667,-3.3646 -2.2002,-4.3461 l 0,0"
         id="path2401"
         style="fill:#3277bd"
         inkscape:connector-curvature="0" />
    </g>
  </g>
</svg>
